<svg width="800" height="400" viewBox="0 0 800 400" xmlns="http://www.w3.org/2000/svg">
  <!-- Chữ T và vạch vận tốc -->
  <g fill="#FF8C42">
    <!-- Các vạch chuyển động bên trái -->
    <rect x="50" y="110" width="40" height="8" rx="4" />
    <rect x="80" y="125" width="50" height="8" rx="4" />
    <rect x="100" y="140" width="60" height="8" rx="4" />
    <rect x="70" y="155" width="80" height="8" rx="4" />
    <rect x="90" y="170" width="70" height="8" rx="4" />
    <rect x="110" y="185" width="50" height="8" rx="4" />
    <rect x="130" y="200" width="30" height="8" rx="4" />
    
    <!-- Thân chữ T -->
    <path d="M160 80h160v40h-55v110h-50v-110h-55z" />
  </g>

  <!-- Chữ ELEC màu xanh -->
  <text x="340" y="215" font-family="Arial Black, sans-serif" font-size="110" fill="#0047AB" style="font-weight: 900;">ELEC</text>

  <!-- Thanh Slogan -->
  <!-- Khung bao ngoài -->
  <rect x="50" y="260" width="600" height="75" rx="12" fill="none" stroke="#0047AB" stroke-width="4"/>
  
  <!-- Nền cam cho vế đầu -->
  <rect x="62" y="272" width="350" height="50" rx="8" fill="#FF8C42"/>
  
  <!-- Chữ Slogan -->
  <text x="75" y="308" font-family="Arial, sans-serif" font-weight="bold" font-size="34" fill="white">Better Electricity</text>
  <text x="430" y="308" font-family="Arial, sans-serif" font-weight="bold" font-size="34" fill="#0047AB">Better Life</text>
</svg>